# xmcd
#
# Track frame offsets: 
#        150
#        65450
#        94300
#        163787
#
# Disc length: 2491 seconds
#
# Revision: 1
# Processed by: cddbd v1.5.2PL0 Copyright (c) Steve Scherf et al.
# Submitted via: ExactAudioCopy v0.95b4
#
DISCID=3009b904
DTITLE=Booker Ervin - The Blues Book
DYEAR=1964
DGENRE=Jazz
TTITLE0=Eerie Dearie
TTITLE1=One For Mort
TTITLE2=No Booze Blooze
TTITLE3=True Blue
EXTD=
EXTT0=
EXTT1=
EXTT2=
EXTT3=
PLAYORDER=
